<svg width="29" height="34" viewBox="0 0 29 34" fill="none" xmlns="http://www.w3.org/2000/svg">
<path fill-rule="evenodd" clip-rule="evenodd" d="M1.08371 8.95259C0.834046 5.36808 2.37931 3.18377 3.18315 2.53967C3.9208 1.70889 6.09401 0.316154 8.8857 1.39151C9.55714 1.69022 11.0476 2.6965 11.6377 4.33193C11.8457 4.77066 12.2221 6.16899 12.0632 8.25249V13.5366C13.6257 14.3455 15.2472 15.1872 16.8012 15.9975V5.87215C16.9824 4.86413 17.6527 2.87631 18.977 2.0246C19.3659 1.77451 19.7875 1.5593 20.211 1.37172C21.1257 0.96653 22.7157 0.729504 24.6315 1.72756C25.4259 2.23163 27.1225 3.71584 27.5537 5.62012C27.6578 5.83481 27.8545 6.85789 27.8091 9.23264V12.8918C27.8091 13.3203 27.7701 13.7508 27.622 14.1537C27.3182 14.9803 26.708 16.1035 25.738 16.6257C24.4897 17.2978 22.6267 18.255 21.8512 18.6495C22.9334 19.2239 23.8427 19.7126 24.4897 20.0702C28.3512 22.2047 28.0559 25.6303 27.9469 26.8951C27.9358 27.0242 27.9266 27.1308 27.9239 27.2112C27.8379 29.8436 26.0501 33.3721 21.9079 33.3721C19.1348 33.3721 17.6519 31.3455 17.0534 29.8363C16.8462 29.314 16.8012 28.7486 16.8012 28.1877V20.5343L12.5172 18.3193L12.0632 18.5648L11.8093 28.584C11.7715 29.4054 11.4291 31.0763 10.1354 32.0845C10.1354 32.0845 9.3694 33.1761 7.66715 33.3721C6.78198 33.4841 5.66088 33.2321 5.25423 33.0921C4.48254 32.9069 3.08053 31.9886 2.5604 31.4124C1.58444 30.3818 1.14325 28.948 1 27.4638V24.5788V22.7871C1.15888 21.3981 1.85113 20.1081 2.16321 19.7627C2.5256 19.0894 3.63255 18.5275 4.18888 18.2452C4.22477 18.227 4.25867 18.2098 4.28962 18.1939L8.2048 16.1263L4.26125 14.1333C4.01813 13.9569 3.78978 13.7996 3.57585 13.6522C2.09222 12.6299 1.30191 12.0854 1.08371 8.95259ZM5.70816 22.0025C5.70816 22.0025 5.10208 22.4059 4.58534 23.2619C4.0939 24.076 4.03428 25.06 4.03428 26.0109C4.03428 27.2201 3.95358 28.5643 4.76012 29.4652C5.06294 29.8034 5.38651 29.9803 5.59468 30.0396C6.66142 30.4877 7.57118 29.9089 7.89272 29.5636C8.48283 28.9811 8.57362 27.7526 8.54525 27.2112V20.4678L5.70816 22.0025ZM5.50957 10.1568C4.86649 9.86739 3.64844 8.77897 3.9208 6.74028C4.26125 4.19191 6.41743 4.30393 6.44581 4.33193C6.44843 4.33452 6.46754 4.33639 6.50012 4.33958C6.8199 4.37088 8.43701 4.52918 8.48851 6.74028C8.5339 8.68936 8.50742 10.8521 8.48851 11.6898C7.36923 11.1127 6.35413 10.5905 5.50957 10.1568ZM21.6238 13.6579C22.6996 13.136 23.6199 12.726 24.2627 11.7177C24.6764 11.0689 24.8391 10.0483 24.8568 9.27905L24.9152 6.74028C24.8774 6.29221 24.6259 5.28407 23.9223 4.836C23.5061 4.50929 22.4186 4.02389 21.3972 4.69598C21.0568 4.91068 20.3816 5.62012 20.4043 6.74028V14.2495L21.6238 13.6579ZM23.2697 23.8787C23.2697 23.8787 24.8883 24.6914 24.8883 26.9317C24.8883 29.4285 20.991 30.7888 20.4542 28.3503C20.4187 28.1891 20.3922 28.0151 20.3759 27.8273C20.1716 25.475 20.2908 23.2173 20.3759 22.3825L23.2697 23.8787Z" fill="#D9D9D9"/>
<path d="M20.3759 22.3825L23.2697 23.8787C23.2697 23.8787 24.8883 24.6914 24.8883 26.9317V26.9317C24.8883 29.4285 20.991 30.7888 20.4542 28.3503C20.4187 28.1891 20.3922 28.0151 20.3759 27.8273C20.1716 25.475 20.2908 23.2173 20.3759 22.3825ZM20.3759 22.3825L16.8012 20.5343M16.8012 20.5343L12.5172 18.3193M16.8012 20.5343V28.1877M8.48851 11.6898C7.36923 11.1127 6.35413 10.5905 5.50957 10.1568C4.86649 9.86739 3.64844 8.77897 3.9208 6.74028C4.26125 4.19191 6.41743 4.30393 6.44581 4.33193C6.44843 4.33452 6.46754 4.33639 6.50012 4.33958C6.8199 4.37088 8.43701 4.52918 8.48851 6.74028C8.5339 8.68936 8.50742 10.8521 8.48851 11.6898ZM8.48851 11.6898C9.59912 12.2624 10.8123 12.889 12.0632 13.5366M12.0632 13.5366V8.25249C12.2221 6.169 11.8457 4.77066 11.6377 4.33193C11.0476 2.6965 9.55714 1.69022 8.8857 1.39151C6.09401 0.316154 3.9208 1.70889 3.18315 2.53967C2.37931 3.18377 0.834046 5.36808 1.08371 8.95259C1.30191 12.0854 2.09222 12.6299 3.57585 13.6522C3.78978 13.7996 4.01813 13.9569 4.26125 14.1333L8.2048 16.1263M12.0632 13.5366C13.6257 14.3455 15.2472 15.1872 16.8012 15.9975M16.8012 15.9975V5.87215C16.9824 4.86413 17.6527 2.87631 18.977 2.0246M16.8012 15.9975C18.6511 16.9622 20.4054 17.8823 21.8512 18.6495M16.8012 15.9975L20.4043 14.2495M21.8512 18.6495C22.9334 19.2239 23.8427 19.7126 24.4897 20.0702C28.3512 22.2047 28.0559 25.6303 27.9469 26.8951C27.9358 27.0242 27.9266 27.1308 27.9239 27.2112C27.8379 29.8436 26.0501 33.3721 21.9079 33.3721C19.1348 33.3721 17.6519 31.3455 17.0534 29.8363M21.8512 18.6495C22.6267 18.255 24.4897 17.2978 25.738 16.6257C26.708 16.1035 27.3182 14.9803 27.622 14.1537M20.4043 14.2495L21.6238 13.6579C22.6996 13.136 23.6199 12.726 24.2627 11.7177V11.7177C24.6764 11.0689 24.8391 10.0483 24.8568 9.27905L24.9152 6.74028C24.8774 6.29221 24.6259 5.28407 23.9223 4.836C23.5061 4.50929 22.4186 4.02389 21.3972 4.69598C21.0568 4.91068 20.3816 5.62012 20.4043 6.74028V14.2495ZM12.5172 18.3193L11.354 17.7179L8.2048 16.1263M12.5172 18.3193L12.0632 18.5648M8.54525 20.4678L5.70816 22.0025C5.70816 22.0025 5.10208 22.4059 4.58534 23.2619C4.0939 24.076 4.03428 25.06 4.03428 26.0109V26.0109C4.03428 27.2201 3.95358 28.5643 4.76012 29.4652C5.06294 29.8034 5.38651 29.9803 5.59468 30.0396C6.66142 30.4877 7.57118 29.9089 7.89272 29.5636C8.48283 28.9811 8.57362 27.7526 8.54525 27.2112V20.4678ZM8.54525 20.4678L12.0632 18.5648M12.0632 18.5648L11.8093 28.584C11.7715 29.4054 11.4291 31.0763 10.1354 32.0845C10.1354 32.0845 9.3694 33.1761 7.66715 33.3721C6.78198 33.4841 5.66088 33.2321 5.25423 33.0921C4.48254 32.9069 3.08053 31.9886 2.5604 31.4124C1.58444 30.3818 1.14325 28.948 1 27.4638V24.5788V22.7871C1.15888 21.3981 1.85113 20.1081 2.16321 19.7627C2.5256 19.0894 3.63255 18.5275 4.18888 18.2452C4.22477 18.227 4.25867 18.2098 4.28962 18.1939L8.2048 16.1263M18.977 2.0246C19.3659 1.77451 19.7875 1.5593 20.211 1.37172M18.977 2.0246V2.0246C19.3661 1.77437 19.788 1.55909 20.211 1.37172V1.37172M20.211 1.37172C21.1257 0.96653 22.7157 0.729504 24.6315 1.72756C25.4259 2.23163 27.1225 3.71584 27.5537 5.62012C27.6578 5.83481 27.8545 6.85789 27.8091 9.23264V12.8918M27.8091 12.8918C27.8091 13.3203 27.7701 13.7508 27.622 14.1537M27.8091 12.8918V12.8918C27.8091 13.3203 27.7698 13.7515 27.622 14.1537V14.1537M17.0534 29.8363C16.8462 29.314 16.8012 28.7486 16.8012 28.1877M17.0534 29.8363V29.8363C16.8466 29.3149 16.8012 28.7485 16.8012 28.1877V28.1877" stroke="black" stroke-width="0.3"/>
</svg>
